<!--+ Whatsapp -->
<svg width="30.000000" height="30.000000" viewBox="0 0 30 30" fill="none" xmlns="http://www.w3.org/2000/svg" xmlns:xlink="http://www.w3.org/1999/xlink">
<svg>
    <symbol id="whatsapp" viewBox="0 0 30 30">
        <svg width="30.000000" height="30.000000" viewBox="0 0 17 17" fill="none" xmlns="http://www.w3.org/2000/svg" xmlns:xlink="http://www.w3.org/1999/xlink">
	        <defs/>
	        <path id="Vector" d="M7.58 -0.65C3 -0.43 -0.6 3.37 -0.59 7.95C-0.59 9.35 -0.25 10.66 0.34 11.82L-0.57 16.25C-0.62 16.49 -0.4 16.7 -0.16 16.64L4.17 15.61C5.29 16.17 6.54 16.49 7.86 16.51C12.53 16.58 16.43 12.87 16.58 8.2C16.73 3.19 12.6 -0.89 7.58 -0.65ZM12.75 12.68C11.48 13.95 9.79 14.65 7.99 14.65C6.94 14.65 5.94 14.41 5 13.95L4.4 13.65L1.74 14.28L2.3 11.56L2 10.98C1.52 10.03 1.27 9 1.27 7.92C1.27 6.13 1.97 4.44 3.24 3.17C4.5 1.91 6.22 1.2 8 1.2C9.79 1.2 11.48 1.9 12.75 3.17C14.02 4.44 14.72 6.13 14.72 7.92C14.72 9.7 14.01 11.42 12.75 12.68Z" fill="#75B73B" fill-opacity="1.000000" fill-rule="nonzero"/>
	        <path id="Vector" d="M12.16 9.79L10.5 9.31C10.28 9.25 10.04 9.31 9.89 9.47L9.48 9.89C9.31 10.06 9.05 10.12 8.82 10.02C8.03 9.71 6.38 8.23 5.96 7.5C5.83 7.29 5.85 7.02 6 6.83L6.36 6.37C6.5 6.19 6.53 5.95 6.44 5.74L5.74 4.16C5.57 3.78 5.08 3.67 4.77 3.93C4.3 4.33 3.75 4.92 3.69 5.58C3.57 6.75 4.07 8.22 5.96 9.98C8.14 12.02 9.89 12.29 11.03 12.01C11.67 11.86 12.19 11.23 12.51 10.72C12.74 10.37 12.56 9.9 12.16 9.79Z" fill="#75B73B" fill-opacity="1.000000" fill-rule="nonzero"/>
        </svg>
    </symbol>
</svg>
<!-- +Telegram -->
<svg>
    <symbol id="telegram" viewBox="0 0 30 30">    
		<clipPath id="clip2_931">
			<rect id="telegram" width="30.000000" height="30.000000" fill="white" fill-opacity="0"/>
		</clipPath>	    
	    <g clip-path="url(#clip2_931)">
		        <path id="Vector" d="M15 0C6.71 0 0 6.71 0 15C0 23.28 6.71 30 15 30C23.28 30 30 23.28 30 15C30 6.71 23.28 0 15 0Z" fill="#40B3E0" fill-opacity="1.000000" fill-rule="nonzero"/>
		        <path id="Vector" d="M22.29 8.62L19.61 22.13C19.61 22.13 19.24 23.07 18.21 22.62L12.03 17.88L9.78 16.79L5.99 15.52C5.99 15.52 5.41 15.31 5.36 14.86C5.3 14.41 6.01 14.17 6.01 14.17L21.06 8.27C21.06 8.27 22.29 7.72 22.29 8.62Z" fill="#FFFFFF" fill-opacity="1.000000" fill-rule="nonzero"/>
		        <path id="Vector" d="M11.55 21.98C11.55 21.98 11.37 21.96 11.15 21.25C10.92 20.54 9.78 16.79 9.78 16.79L18.87 11.02C18.87 11.02 19.39 10.7 19.37 11.02C19.37 11.02 19.46 11.08 19.18 11.34C18.9 11.6 12.05 17.77 12.05 17.77L11.55 21.98Z" fill="#D2E5F1" fill-opacity="1.000000" fill-rule="nonzero"/>
		        <path id="Vector" d="M14.4 19.7L11.95 21.93C11.95 21.93 11.76 22.07 11.55 21.98L12.02 17.84L14.4 19.7Z" fill="#B5CFE4" fill-opacity="1.000000" fill-rule="nonzero"/>
	    </g>
    </symbol>
</svg>
<!-- +Viber -->
<svg>
    <symbol id="viber" viewBox="0 0 30 30">
        <g clip-path="url(#clip0_51_426)">
            <path
                d="M15 30C23.2843 30 30 23.2843 30 15C30 6.71573 23.2843 0 15 0C6.71573 0 0 6.71573 0 15C0 23.2843 6.71573 30 15 30Z"
                fill="#6F3FAA" />
            <path
                d="M22.9351 10.5424L22.9302 10.5226C22.5294 8.90234 20.7225 7.16374 19.0631 6.80205L19.0445 6.79818C16.3605 6.28619 13.6391 6.28619 10.9558 6.79818L10.9365 6.80205C9.2777 7.16374 7.47072 8.90246 7.06941 10.5226L7.06496 10.5424C6.56949 12.8052 6.56949 15.0999 7.06496 17.3626L7.06941 17.3824C7.45367 18.9335 9.126 20.5923 10.7234 21.0485V22.8571C10.7234 23.5118 11.5212 23.8333 11.9748 23.3609L13.8073 21.4561C14.2048 21.4783 14.6025 21.4907 15.0001 21.4907C16.3511 21.4907 17.7027 21.3629 19.0444 21.1069L19.0631 21.1031C20.7225 20.7414 22.5294 19.0027 22.9302 17.3825L22.9351 17.3627C23.4305 15.0999 23.4305 12.8053 22.9351 10.5424ZM21.4849 17.0346C21.2173 18.0917 19.8454 19.4058 18.7553 19.6486C17.3282 19.92 15.8898 20.036 14.4529 19.9962C14.4243 19.9954 14.3968 20.0065 14.3769 20.027C14.173 20.2363 13.0389 21.4006 13.0389 21.4006L11.6158 22.8612C11.5118 22.9697 11.3289 22.8958 11.3289 22.7461V19.7499C11.3289 19.7003 11.2936 19.6583 11.245 19.6487C11.2447 19.6486 11.2445 19.6486 11.2442 19.6486C10.1541 19.4057 8.78264 18.0916 8.51457 17.0345C8.06861 14.9892 8.06861 12.9158 8.51457 10.8706C8.78264 9.81347 10.1541 8.49933 11.2442 8.25652C13.7365 7.78249 16.2635 7.78249 18.7554 8.25652C19.846 8.49933 21.2173 9.81347 21.4849 10.8706C21.9314 12.9159 21.9314 14.9893 21.4849 17.0346Z"
                fill="white" />
            <path
                d="M17.3714 18.4176C17.2038 18.3667 17.0441 18.3325 16.8957 18.2711C15.3587 17.6334 13.9443 16.8107 12.8239 15.5497C12.1868 14.8327 11.6881 14.0231 11.2666 13.1663C11.0666 12.76 10.8982 12.3379 10.7264 11.9183C10.5699 11.5358 10.8005 11.1407 11.0433 10.8524C11.2712 10.5819 11.5645 10.3749 11.882 10.2223C12.1299 10.1032 12.3743 10.1719 12.5554 10.3819C12.9467 10.8362 13.3062 11.3136 13.5972 11.8401C13.7762 12.1639 13.7271 12.5598 13.4027 12.7802C13.3238 12.8337 13.252 12.8967 13.1785 12.9571C13.1141 13.0102 13.0535 13.0637 13.0093 13.1355C12.9286 13.2668 12.9248 13.4218 12.9767 13.5646C13.3767 14.6638 14.0509 15.5187 15.1575 15.9792C15.3345 16.0529 15.5123 16.1386 15.7163 16.1149C16.0579 16.075 16.1686 15.7002 16.408 15.5044C16.642 15.3131 16.941 15.3106 17.193 15.4701C17.4452 15.6297 17.6895 15.8009 17.9324 15.9741C18.1709 16.144 18.4083 16.3101 18.6282 16.5039C18.8397 16.6901 18.9125 16.9345 18.7934 17.1872C18.5754 17.6501 18.2581 18.0352 17.8006 18.281C17.6714 18.3503 17.517 18.3727 17.3714 18.4176C17.517 18.3727 17.2038 18.3667 17.3714 18.4176Z"
                fill="white" />
            <path
                d="M15.0041 9.69293C17.0144 9.7493 18.6657 11.0834 19.0195 13.0709C19.0798 13.4096 19.1012 13.7558 19.1281 14.0995C19.1394 14.2441 19.0575 14.3814 18.9015 14.3834C18.7404 14.3853 18.6679 14.2504 18.6573 14.106C18.6367 13.8199 18.6223 13.5325 18.5829 13.2489C18.3748 11.7513 17.1807 10.5124 15.69 10.2465C15.4657 10.2065 15.2362 10.196 15.0089 10.1722C14.8653 10.1571 14.6772 10.1484 14.6454 9.96985C14.6188 9.82014 14.7451 9.70096 14.8877 9.69329C14.9263 9.691 14.9652 9.69282 15.0041 9.69293C17.0145 9.7493 14.9652 9.69282 15.0041 9.69293Z"
                fill="white" />
            <path
                d="M18.0594 13.6535C18.0561 13.6786 18.0544 13.7376 18.0396 13.7932C17.9863 13.995 17.6802 14.0202 17.6098 13.8166C17.5889 13.7562 17.5858 13.6874 17.5857 13.6224C17.585 13.1966 17.4924 12.7712 17.2777 12.4007C17.057 12.0199 16.7197 11.7 16.3243 11.5062C16.0851 11.3891 15.8265 11.3163 15.5644 11.273C15.4498 11.254 15.334 11.2426 15.2189 11.2265C15.0794 11.2071 15.0048 11.1182 15.0115 10.9808C15.0177 10.852 15.1118 10.7592 15.2522 10.7673C15.7135 10.7934 16.1592 10.8932 16.5694 11.1104C17.4034 11.5521 17.8799 12.2493 18.019 13.1803C18.0253 13.2225 18.0354 13.2642 18.0386 13.3065C18.0464 13.411 18.0514 13.5155 18.0594 13.6535C18.0561 13.6785 18.0514 13.5155 18.0594 13.6535Z"
                fill="white" />
            <path
                d="M16.809 13.6048C16.6408 13.6078 16.5508 13.5147 16.5334 13.3606C16.5214 13.2531 16.5118 13.1441 16.4861 13.0395C16.4356 12.8334 16.3261 12.6425 16.1528 12.5162C16.071 12.4566 15.9783 12.4132 15.8812 12.3851C15.7578 12.3494 15.6296 12.3593 15.5066 12.3291C15.373 12.2964 15.299 12.1881 15.3201 12.0628C15.3392 11.9486 15.4501 11.8596 15.5749 11.8686C16.3543 11.9249 16.9114 12.3278 16.9909 13.2454C16.9966 13.3102 17.0031 13.3786 16.9888 13.4406C16.964 13.5465 16.8855 13.5996 16.809 13.6048C16.8855 13.5996 16.6408 13.6078 16.809 13.6048Z"
                fill="white" />
            <path d="M17.3714 18.4176C17.2038 18.3667 17.517 18.3727 17.3714 18.4176V18.4176Z" fill="white" />
            <path
                d="M15.0094 9.69325C15.0077 9.69325 15.006 9.69307 15.0043 9.69307C15.0027 9.69295 15.0048 9.69307 15.0094 9.69325Z"
                fill="white" />
            <path
                d="M15.0044 9.69293C15.0061 9.69293 15.0077 9.69311 15.0094 9.69311C15.121 9.69709 16.9355 9.74707 15.0044 9.69293Z"
                fill="white" />
            <path d="M18.0593 13.6535C18.0514 13.5155 18.056 13.6785 18.0593 13.6535V13.6535Z" fill="white" />
            <path
                d="M16.809 13.6048C16.8116 13.6046 16.8141 13.6032 16.8167 13.6029C16.8096 13.6029 16.7987 13.6031 16.7875 13.6035C16.7947 13.6037 16.8014 13.6048 16.809 13.6048Z"
                fill="white" />
            <path
                d="M16.8089 13.6048C16.8013 13.6049 16.7947 13.6038 16.7874 13.6035C16.751 13.6045 16.7135 13.6065 16.8089 13.6048Z"
                fill="white" />
            <path
                d="M16.8165 13.6029C16.8139 13.6032 16.8114 13.6046 16.8088 13.6048C16.8285 13.6034 16.8268 13.6029 16.8165 13.6029Z"
                fill="white" />
        </g>
    </symbol>
</svg>