<svg width="29" height="30" viewBox="0 0 29 30" fill="none" xmlns="http://www.w3.org/2000/svg">
<g filter="url(#filter0_d_60_356)">
<path d="M24 9.64095C24.1 9.14095 23.7 8.54095 23.2 8.54095L17.5 7.74095L14.9 2.54095C14.8 2.34095 14.7 2.24095 14.5 2.14095C14 1.84095 13.4 2.04095 13.1 2.54095L10.6 7.74095L4.9 8.54095C4.6 8.54095 4.4 8.64095 4.3 8.84095C3.9 9.24095 3.9 9.84095 4.3 10.241L8.4 14.241L7.4 19.941C7.4 20.141 7.4 20.341 7.5 20.541C7.8 21.041 8.4 21.241 8.9 20.941L14 18.241L19.1 20.941C19.2 21.041 19.4 21.041 19.6 21.041C19.7 21.041 19.7 21.041 19.8 21.041C20.3 20.941 20.7 20.441 20.6 19.841L19.6 14.141L23.7 10.141C23.9 10.041 24 9.84095 24 9.64095Z" fill="#FFBC57"/>
</g>
<defs>
<filter id="filter0_d_60_356" x="-2" y="0" width="32" height="32" filterUnits="userSpaceOnUse" color-interpolation-filters="sRGB">
<feFlood flood-opacity="0" result="BackgroundImageFix"/>
<feColorMatrix in="SourceAlpha" type="matrix" values="0 0 0 0 0 0 0 0 0 0 0 0 0 0 0 0 0 0 127 0" result="hardAlpha"/>
<feOffset dy="4"/>
<feGaussianBlur stdDeviation="2"/>
<feComposite in2="hardAlpha" operator="out"/>
<feColorMatrix type="matrix" values="0 0 0 0 0 0 0 0 0 0 0 0 0 0 0 0 0 0 0.25 0"/>
<feBlend mode="normal" in2="BackgroundImageFix" result="effect1_dropShadow_60_356"/>
<feBlend mode="normal" in="SourceGraphic" in2="effect1_dropShadow_60_356" result="shape"/>
</filter>
</defs>
</svg>
