<svg width="38.000000" height="38.000000" viewBox="0 0 38 38" fill="none" xmlns="http://www.w3.org/2000/svg" xmlns:xlink="http://www.w3.org/1999/xlink">
	<desc>
			Created with Pixso.
	</desc>
	<defs>
		<filter id="filter_2_948_dd" x="0.000000" y="0.000000" width="38.000000" height="38.000000" filterUnits="userSpaceOnUse" color-interpolation-filters="sRGB">
			<feFlood flood-opacity="0" result="BackgroundImageFix"/>
			<feColorMatrix in="SourceAlpha" type="matrix" values="0 0 0 0 0 0 0 0 0 0 0 0 0 0 0 0 0 0 127 0" result="hardAlpha"/>
			<feOffset dx="0" dy="4"/>
			<feGaussianBlur stdDeviation="1.33333"/>
			<feComposite in2="hardAlpha" operator="out" k2="-1" k3="1"/>
			<feColorMatrix type="matrix" values="0 0 0 0 0 0 0 0 0 0 0 0 0 0 0 0 0 0 0.25 0"/>
			<feBlend mode="normal" in2="BackgroundImageFix" result="effect_dropShadow_1"/>
			<feBlend mode="normal" in="SourceGraphic" in2="effect_dropShadow_1" result="shape"/>
		</filter>
		<clipPath id="clip2_948">
			<rect id="viber" width="30.000000" height="30.000000" transform="translate(4.000000 0.000000)" fill="white" fill-opacity="0"/>
		</clipPath>
	</defs>
	<g filter="url(#filter_2_948_dd)">
		<g clip-path="url(#clip2_948)">
			<path id="Vector" d="M34 15C34 23.28 27.28 30 19 30C10.71 30 4 23.28 4 15C4 6.71 10.71 0 19 0C27.28 0 34 6.71 34 15Z" fill="#6F3FAA" fill-opacity="1.000000" fill-rule="evenodd"/>
			<path id="Vector" d="M26.93 10.54L26.93 10.52C26.52 8.9 24.72 7.16 23.06 6.8L23.04 6.79C20.36 6.28 17.63 6.28 14.95 6.79L14.93 6.8C13.27 7.16 11.47 8.9 11.06 10.52L11.06 10.54C10.56 12.8 10.56 15.09 11.06 17.36L11.06 17.38C11.45 18.93 13.12 20.59 14.72 21.04L14.72 22.85C14.72 23.51 15.52 23.83 15.97 23.36L17.8 21.45C18.2 21.47 18.6 21.49 19 21.49C20.35 21.49 21.7 21.36 23.04 21.1L23.06 21.1C24.72 20.74 26.52 19 26.93 17.38L26.93 17.36C27.43 15.09 27.43 12.8 26.93 10.54ZM25.48 17.03C25.21 18.09 23.84 19.4 22.75 19.64C21.32 19.92 19.88 20.03 18.45 19.99C18.42 19.99 18.39 20 18.37 20.02C18.17 20.23 17.03 21.4 17.03 21.4L15.61 22.86C15.51 22.96 15.32 22.89 15.32 22.74L15.32 19.74C15.32 19.7 15.29 19.65 15.24 19.64C15.24 19.64 15.24 19.64 15.24 19.64C14.15 19.4 12.78 18.09 12.51 17.03C12.06 14.98 12.06 12.91 12.51 10.87C12.78 9.81 14.15 8.49 15.24 8.25C17.73 7.78 20.26 7.78 22.75 8.25C23.84 8.49 25.21 9.81 25.48 10.87C25.93 12.91 25.93 14.98 25.48 17.03Z" fill="#FFFFFF" fill-opacity="1.000000" fill-rule="nonzero"/>
			<path id="Vector" d="M21.37 18.41C21.2 18.36 21.04 18.33 20.89 18.27C19.35 17.63 17.94 16.81 16.82 15.54C16.18 14.83 15.68 14.02 15.26 13.16C15.06 12.76 14.89 12.33 14.72 11.91C14.56 11.53 14.8 11.14 15.04 10.85C15.27 10.58 15.56 10.37 15.88 10.22C16.12 10.1 16.37 10.17 16.55 10.38C16.94 10.83 17.3 11.31 17.59 11.84C17.77 12.16 17.72 12.55 17.4 12.78C17.32 12.83 17.25 12.89 17.17 12.95C17.11 13.01 17.05 13.06 17 13.13C16.92 13.26 16.92 13.42 16.97 13.56C17.37 14.66 18.05 15.51 19.15 15.97C19.33 16.05 19.51 16.13 19.71 16.11C20.05 16.07 20.16 15.7 20.4 15.5C20.64 15.31 20.94 15.31 21.19 15.47C21.44 15.62 21.68 15.8 21.93 15.97C22.17 16.14 22.4 16.31 22.62 16.5C22.83 16.69 22.91 16.93 22.79 17.18C22.57 17.65 22.25 18.03 21.8 18.28C21.67 18.35 21.51 18.37 21.37 18.41Z" fill="#FFFFFF" fill-opacity="1.000000" fill-rule="nonzero"/>
			<path id="Vector" d="M19 9.69C21.01 9.74 22.66 11.08 23.01 13.07C23.07 13.4 23.1 13.75 23.12 14.09C23.13 14.24 23.05 14.38 22.9 14.38C22.74 14.38 22.66 14.25 22.65 14.1C22.63 13.81 22.62 13.53 22.58 13.24C22.37 11.75 21.18 10.51 19.69 10.24C19.46 10.2 19.23 10.19 19 10.17C18.86 10.15 18.67 10.14 18.64 9.96C18.61 9.82 18.74 9.7 18.88 9.69C18.92 9.69 18.96 9.69 19 9.69Z" fill="#FFFFFF" fill-opacity="1.000000" fill-rule="nonzero"/>
			<path id="Vector" d="M22.05 13.65C22.05 13.67 22.05 13.73 22.03 13.79C21.98 13.99 21.68 14.02 21.6 13.81C21.58 13.75 21.58 13.68 21.58 13.62C21.58 13.19 21.49 12.77 21.27 12.4C21.05 12.01 20.71 11.69 20.32 11.5C20.08 11.38 19.82 11.31 19.56 11.27C19.44 11.25 19.33 11.24 19.21 11.22C19.07 11.2 19 11.11 19.01 10.98C19.01 10.85 19.11 10.75 19.25 10.76C19.71 10.79 20.15 10.89 20.56 11.11C21.4 11.55 21.87 12.24 22.01 13.18C22.02 13.22 22.03 13.26 22.03 13.3C22.04 13.41 22.05 13.51 22.05 13.65Z" fill="#FFFFFF" fill-opacity="1.000000" fill-rule="nonzero"/>
			<path id="Vector" d="M20.8 13.6C20.64 13.6 20.55 13.51 20.53 13.36C20.52 13.25 20.51 13.14 20.48 13.03C20.43 12.83 20.32 12.64 20.15 12.51C20.07 12.45 19.97 12.41 19.88 12.38C19.75 12.34 19.62 12.35 19.5 12.32C19.37 12.29 19.29 12.18 19.32 12.06C19.33 11.94 19.45 11.85 19.57 11.86C20.35 11.92 20.91 12.32 20.99 13.24C20.99 13.31 21 13.37 20.98 13.44C20.96 13.54 20.88 13.59 20.8 13.6Z" fill="#FFFFFF" fill-opacity="1.000000" fill-rule="nonzero"/>
			<path id="Vector" d="" fill="#FFFFFF" fill-opacity="1.000000" fill-rule="nonzero"/>
			<path id="Vector" d="M19 9.69C19 9.69 19 9.69 19 9.69C19 9.69 19 9.69 19 9.69Z" fill="#FFFFFF" fill-opacity="1.000000" fill-rule="nonzero"/>
			<path id="Vector" d="M19 9.69C19 9.69 19 9.69 19 9.69C19.12 9.69 20.93 9.74 19 9.69Z" fill="#FFFFFF" fill-opacity="1.000000" fill-rule="nonzero"/>
			<path id="Vector" d="" fill="#FFFFFF" fill-opacity="1.000000" fill-rule="nonzero"/>
			<path id="Vector" d="M20.8 13.6C20.81 13.6 20.81 13.6 20.81 13.6C20.8 13.6 20.79 13.6 20.78 13.6C20.79 13.6 20.8 13.6 20.8 13.6Z" fill="#FFFFFF" fill-opacity="1.000000" fill-rule="nonzero"/>
			<path id="Vector" d="M20.8 13.6C20.8 13.6 20.79 13.6 20.78 13.6C20.75 13.6 20.71 13.6 20.8 13.6Z" fill="#FFFFFF" fill-opacity="1.000000" fill-rule="nonzero"/>
			<path id="Vector" d="M20.81 13.6C20.81 13.6 20.81 13.6 20.8 13.6C20.82 13.6 20.82 13.6 20.81 13.6Z" fill="#FFFFFF" fill-opacity="1.000000" fill-rule="nonzero"/>
		</g>
	</g>
</svg>
