<svg width="17.000000" height="17.000000" viewBox="0 0 17 17" fill="none" xmlns="http://www.w3.org/2000/svg" xmlns:xlink="http://www.w3.org/1999/xlink">
	<defs/>
	<path id="Vector" d="M7.58 -0.65C3 -0.43 -0.6 3.37 -0.59 7.95C-0.59 9.35 -0.25 10.66 0.34 11.82L-0.57 16.25C-0.62 16.49 -0.4 16.7 -0.16 16.64L4.17 15.61C5.29 16.17 6.54 16.49 7.86 16.51C12.53 16.58 16.43 12.87 16.58 8.2C16.73 3.19 12.6 -0.89 7.58 -0.65ZM12.75 12.68C11.48 13.95 9.79 14.65 7.99 14.65C6.94 14.65 5.94 14.41 5 13.95L4.4 13.65L1.74 14.28L2.3 11.56L2 10.98C1.52 10.03 1.27 9 1.27 7.92C1.27 6.13 1.97 4.44 3.24 3.17C4.5 1.91 6.22 1.2 8 1.2C9.79 1.2 11.48 1.9 12.75 3.17C14.02 4.44 14.72 6.13 14.72 7.92C14.72 9.7 14.01 11.42 12.75 12.68Z" fill="#FFFFFF" fill-opacity="1.000000" fill-rule="nonzero"/>
	<path id="Vector" d="M12.16 9.79L10.5 9.31C10.28 9.25 10.04 9.31 9.89 9.47L9.48 9.89C9.31 10.06 9.05 10.12 8.82 10.02C8.03 9.71 6.38 8.23 5.96 7.5C5.83 7.29 5.85 7.02 6 6.83L6.36 6.37C6.5 6.19 6.53 5.95 6.44 5.74L5.74 4.16C5.57 3.78 5.08 3.67 4.77 3.93C4.3 4.33 3.75 4.92 3.69 5.58C3.57 6.75 4.07 8.22 5.96 9.98C8.14 12.02 9.89 12.29 11.03 12.01C11.67 11.86 12.19 11.23 12.51 10.72C12.74 10.37 12.56 9.9 12.16 9.79Z" fill="#FFFFFF" fill-opacity="1.000000" fill-rule="nonzero"/>
</svg>
